<svg xmlns="http://www.w3.org/2000/svg" viewBox="0 0 1040 560" width="1040" height="560" font-family="Noto Sans CJK KR, Noto Sans KR, sans-serif">
  <defs>
    <marker id="ar" viewBox="0 0 10 10" refX="9" refY="5" markerWidth="7" markerHeight="7" orient="auto-start-reverse">
      <path d="M0,1 L9,5 L0,9" fill="none" stroke="#94A3B8" stroke-width="1.6" stroke-linecap="round" stroke-linejoin="round"/>
    </marker>
    <marker id="arT" viewBox="0 0 10 10" refX="9" refY="5" markerWidth="7" markerHeight="7" orient="auto-start-reverse">
      <path d="M0,1 L9,5 L0,9" fill="none" stroke="#0E7C7B" stroke-width="1.8" stroke-linecap="round" stroke-linejoin="round"/>
    </marker>
    <linearGradient id="fun" x1="0" y1="0" x2="1" y2="0">
      <stop offset="0" stop-color="#16324F" stop-opacity="0.10"/>
      <stop offset="1" stop-color="#0E7C7B" stop-opacity="0.22"/>
    </linearGradient>
  </defs>

  <rect width="1040" height="560" fill="#FFFFFF"/>

  <!-- 밴드 머리 -->
  <g font-size="12" letter-spacing="2.4" fill="#94A3B8" font-weight="600">
    <text x="40" y="34">원천</text>
    <text x="392" y="34">전처리</text>
    <text x="760" y="34">파생물</text>
  </g>
  <g stroke="#E8EBEF" stroke-width="1">
    <line x1="40" y1="46" x2="332" y2="46"/>
    <line x1="392" y1="46" x2="700" y2="46"/>
    <line x1="760" y1="46" x2="1000" y2="46"/>
  </g>

  <!-- ── 원천 ── -->
  <g>
    <rect x="40" y="66" width="292" height="62" rx="10" fill="#F6F8FA" stroke="#E2E8F0"/>
    <rect x="40" y="66" width="3.5" height="62" rx="2" fill="#16324F"/>
    <text x="60" y="92" font-size="15" font-weight="700" fill="#16324F">공정위 의결서</text>
    <text x="60" y="113" font-size="12" fill="#64748B">1층 판정라벨 · ftc_decisions_body</text>
    <text x="312" y="103" font-size="19" font-weight="700" fill="#16324F" text-anchor="end">16,506</text>
  </g>
  <g>
    <rect x="40" y="140" width="292" height="62" rx="10" fill="#F6F8FA" stroke="#E2E8F0"/>
    <rect x="40" y="140" width="3.5" height="62" rx="2" fill="#0E7C7B"/>
    <text x="60" y="166" font-size="15" font-weight="700" fill="#16324F">식약처 인정 원료</text>
    <text x="60" y="187" font-size="12" fill="#64748B">2층 적법라벨 · 승인 문구의 출처</text>
    <text x="312" y="177" font-size="19" font-weight="700" fill="#16324F" text-anchor="end">1,334</text>
  </g>
  <g>
    <rect x="40" y="214" width="292" height="62" rx="10" fill="#F6F8FA" stroke="#E2E8F0"/>
    <rect x="40" y="214" width="3.5" height="62" rx="2" fill="#0E7C7B"/>
    <text x="60" y="240" font-size="15" font-weight="700" fill="#16324F">법제처 법령 · 별표</text>
    <text x="60" y="261" font-size="12" fill="#64748B">3 · 4 · 5층 · 조문 인용의 근거</text>
    <text x="312" y="251" font-size="19" font-weight="700" fill="#16324F" text-anchor="end">524</text>
  </g>
  <g>
    <rect x="40" y="288" width="292" height="62" rx="10" fill="#F6F8FA" stroke="#E2E8F0"/>
    <rect x="40" y="288" width="3.5" height="62" rx="2" fill="#94A3B8"/>
    <text x="60" y="314" font-size="15" font-weight="700" fill="#16324F">식약처 사례집 · 보도</text>
    <text x="60" y="335" font-size="12" fill="#64748B">1층 · 사례집은 사전 쪽이다</text>
    <text x="312" y="325" font-size="19" font-weight="700" fill="#16324F" text-anchor="end">643</text>
  </g>

  <!-- 원천 → 전처리 -->
  <g stroke="#CBD5E1" stroke-width="1.4" fill="none">
    <path d="M336 97 H358"/><path d="M336 171 H358"/>
    <path d="M336 245 H358"/><path d="M336 319 H358"/>
    <path d="M358 97 V319"/>
    <path d="M358 208 H382" marker-end="url(#ar)"/>
  </g>

  <!-- ── 전처리 ── -->
  <rect x="384" y="62" width="316" height="300" rx="14" fill="#FBFCFD" stroke="#E2E8F0"/>
  <line x1="412" y1="96" x2="412" y2="330" stroke="#E2E8F0" stroke-width="2"/>
  <g font-size="13.5" fill="#16324F">
    <g><circle cx="412" cy="96" r="9" fill="#16324F"/><text x="412" y="100.5" font-size="10.5" fill="#fff" text-anchor="middle" font-weight="700">1</text>
      <text x="434" y="93" font-weight="700">분류 triage</text><text x="434" y="110" font-size="11.5" fill="#64748B">8,253 → CORE 854 (10.3%)</text></g>
    <g><circle cx="412" cy="148" r="9" fill="#16324F"/><text x="412" y="152.5" font-size="10.5" fill="#fff" text-anchor="middle" font-weight="700">2</text>
      <text x="434" y="145" font-weight="700">마스킹</text><text x="434" y="162" font-size="11.5" fill="#64748B">피심인 · 사람 · 주소 — 뽑기 전에</text></g>
    <g><circle cx="412" cy="200" r="9" fill="#0E7C7B"/><text x="412" y="204.5" font-size="10.5" fill="#fff" text-anchor="middle" font-weight="700">3</text>
      <text x="434" y="197" font-weight="700">문구 추출</text><text x="434" y="214" font-size="11.5" fill="#64748B">주문 627 · 이유 8,319</text></g>
    <g><circle cx="412" cy="252" r="9" fill="#0E7C7B"/><text x="412" y="256.5" font-size="10.5" fill="#fff" text-anchor="middle" font-weight="700">4</text>
      <text x="434" y="249" font-weight="700">조문 라벨</text><text x="434" y="266" font-size="11.5" fill="#64748B">유형 6종 — 조문이 붙인다</text></g>
    <g><circle cx="412" cy="304" r="9" fill="#0E7C7B"/><text x="412" y="308.5" font-size="10.5" fill="#fff" text-anchor="middle" font-weight="700">5</text>
      <text x="434" y="301" font-weight="700">분할 → 사전 → 주입 → 물질화</text><text x="434" y="318" font-size="11.5" fill="#64748B">분할이 맨 앞이다</text></g>
  </g>

  <!-- 전처리 → 파생물 -->
  <g stroke="#CBD5E1" stroke-width="1.4" fill="none">
    <path d="M702 208 H730"/>
    <path d="M730 101 V311"/>
    <g marker-end="url(#ar)">
      <path d="M730 101 H752"/><path d="M730 175 H752"/>
      <path d="M730 243 H752"/><path d="M730 311 H752"/>
    </g>
  </g>

  <!-- ── 파생물 ── -->
  <g>
    <rect x="756" y="66" width="244" height="70" rx="10" fill="#0E7C7B" fill-opacity="0.07" stroke="#0E7C7B" stroke-opacity="0.45" stroke-width="1.4"/>
    <text x="776" y="92" font-size="15" font-weight="700" fill="#0B5F5E">골든셋</text>
    <text x="776" y="112" font-size="11.5" fill="#478886">학습 6,429 · 평가 197</text>
    <text x="980" y="100" font-size="24" font-weight="700" fill="#0B5F5E" text-anchor="end">6,626</text>
    <text x="980" y="122" font-size="11" fill="#478886" text-anchor="end">행</text>
  </g>
  <g>
    <rect x="756" y="146" width="244" height="58" rx="10" fill="#F6F8FA" stroke="#E2E8F0"/>
    <text x="776" y="170" font-size="14" font-weight="700" fill="#16324F">금칙어 사전</text>
    <text x="776" y="189" font-size="11.5" fill="#64748B">단독 판정 자격 414종 (77%)</text>
    <text x="980" y="181" font-size="19" font-weight="700" fill="#16324F" text-anchor="end">536</text>
  </g>
  <g>
    <rect x="756" y="214" width="244" height="58" rx="10" fill="#F6F8FA" stroke="#E2E8F0"/>
    <text x="776" y="238" font-size="14" font-weight="700" fill="#16324F">RAG 청크</text>
    <text x="776" y="257" font-size="11.5" fill="#64748B">임베딩 2,400 / 2,400</text>
    <text x="980" y="249" font-size="19" font-weight="700" fill="#16324F" text-anchor="end">2,400</text>
  </g>
  <g>
    <rect x="756" y="282" width="244" height="58" rx="10" fill="#F6F8FA" stroke="#E2E8F0"/>
    <text x="776" y="306" font-size="14" font-weight="700" fill="#16324F">제품 사실</text>
    <text x="776" y="325" font-size="11.5" fill="#64748B">2층 적법 라벨의 재료</text>
    <text x="980" y="317" font-size="19" font-weight="700" fill="#16324F" text-anchor="end">447</text>
  </g>

  <!-- ── 깔때기 ── -->
  <line x1="40" y1="396" x2="1000" y2="396" stroke="#E8EBEF" stroke-width="1"/>
  <text x="40" y="424" font-size="12" letter-spacing="2.4" fill="#94A3B8" font-weight="600">이번 주의 본안 — 공정위 의결서가 골든셋이 되기까지</text>

  <g>
    <rect x="40" y="440" width="960" height="76" rx="12" fill="url(#fun)"/>
    <g text-anchor="middle">
      <g><text x="128" y="474" font-size="22" font-weight="700" fill="#16324F">8,253</text>
         <text x="128" y="496" font-size="11.5" fill="#5A6B7D">의결서 전량</text></g>
      <g><text x="330" y="474" font-size="22" font-weight="700" fill="#16324F">854</text>
         <text x="330" y="496" font-size="11.5" fill="#5A6B7D">1층 후보 (CORE)</text></g>
      <g><text x="532" y="474" font-size="22" font-weight="700" fill="#0B5F5E">785</text>
         <text x="532" y="496" font-size="11.5" fill="#478886">문구를 담은 문서</text></g>
      <g><text x="734" y="474" font-size="22" font-weight="700" fill="#0B5F5E">8,946</text>
         <text x="734" y="496" font-size="11.5" fill="#478886">뽑은 문구</text></g>
      <g><text x="920" y="474" font-size="22" font-weight="700" fill="#0B5F5E">5,233</text>
         <text x="920" y="496" font-size="11.5" fill="#478886">골든셋 기여 행</text></g>
    </g>
    <g stroke="#0E7C7B" stroke-opacity="0.55" stroke-width="1.4" fill="none" marker-end="url(#arT)">
      <line x1="182" y1="468" x2="272" y2="468"/>
      <line x1="376" y1="468" x2="476" y2="468"/>
      <line x1="580" y1="468" x2="672" y2="468"/>
      <line x1="790" y1="468" x2="868" y2="468"/>
    </g>
  </g>
  <text x="40" y="540" font-size="11.5" fill="#94A3B8">주문만 보던 시절엔 283문서 · 627문구뿐이었다. 「이유」를 회수해 502문서 · 4,932문구가 들어왔다 (D-232 · D-234).</text>
</svg>
